<svg width="18" height="18" viewBox="0 0 18 18" fill="none" xmlns="http://www.w3.org/2000/svg">
<path d="M6.53329 16.9498C7.33329 17.1915 8.14163 17.3332 8.99996 17.3332C13.6 17.3332 17.3333 13.5998 17.3333 8.99984C17.3333 4.39984 13.6 0.666504 8.99996 0.666504C4.39996 0.666504 0.666626 4.39984 0.666626 8.99984C0.666626 12.5415 2.89163 15.5832 6.03329 16.7832C5.95829 16.1332 5.88329 15.0582 6.03329 14.3165L6.99163 10.1998C6.99163 10.1998 6.74996 9.7165 6.74996 8.94984C6.74996 7.79984 7.46663 6.9415 8.28329 6.9415C8.99996 6.9415 9.33329 7.4665 9.33329 8.1415C9.33329 8.85817 8.85829 9.88317 8.61663 10.8665C8.47496 11.6832 9.04996 12.3998 9.88329 12.3998C11.3666 12.3998 12.5166 10.8165 12.5166 8.58317C12.5166 6.58317 11.0833 5.2165 9.02496 5.2165C6.67496 5.2165 5.29163 6.9665 5.29163 8.80817C5.29163 9.52484 5.52496 10.2498 5.90829 10.7248C5.98329 10.7748 5.98329 10.8415 5.95829 10.9665L5.71663 11.8748C5.71663 12.0165 5.62496 12.0665 5.48329 11.9665C4.41663 11.4998 3.79996 9.98317 3.79996 8.75817C3.79996 6.12484 5.66663 3.73317 9.26663 3.73317C12.1333 3.73317 14.3666 5.7915 14.3666 8.52484C14.3666 11.3915 12.5916 13.6915 10.05 13.6915C9.24163 13.6915 8.44996 13.2582 8.16663 12.7498L7.60829 14.7248C7.41663 15.4415 6.89163 16.3998 6.53329 16.9748V16.9498Z" fill="white"/>
</svg>
